<?xml version="1.0" encoding="UTF-8"?>
<svg width="70px" height="70px" viewBox="0 0 70 70" version="1.1" xmlns="http://www.w3.org/2000/svg" xmlns:xlink="http://www.w3.org/1999/xlink">
    <title>HTML5 </title>
    <g id="וואב" stroke="none" stroke-width="1" fill="none" fill-rule="evenodd">
        <g id="HTML5-" fill-rule="nonzero">
            <path d="M70,35 C70,46.2542773 64.6871094,56.2685156 56.4328516,62.6714648 C50.5114258,67.2657617 43.0757031,70 35,70 C26.997168,70 19.622832,67.3142969 13.7271094,62.7942383 C5.38138672,56.3985352 0,46.3271484 0,35 C0,15.6700195 15.6700195,0 35,0 C54.3299805,0 70,15.6700195 70,35 Z" id="Path" fill="#F2F2F2"></path>
            <path d="M60.4285937,16.3343359 L56.4328516,62.6714648 C50.5114258,67.2657617 43.0757031,70 35,70 C26.997168,70 19.622832,67.3142969 13.7271094,62.7942383 L9.72138672,16.3343359 L60.4285937,16.3343359 Z" id="Path" fill="#E64C18"></path>
            <polygon id="Path" fill="#F36518" points="35.0746484 20.6785742 35.0746484 68.929082 51.7425781 64.2236328 55.4606445 20.6785742"></polygon>
            <polygon id="Path" fill="#FFFFFF" points="19.264082 26.7323437 20.8985547 46.0866602 42.6235742 46.0866602 41.9127734 54.0815625 35.0750586 55.9332813 27.9535156 53.9382812 27.7746875 48.9536523 21.140957 48.9536523 21.9713867 58.7809961 35.0750586 62.4842969 48.1785937 58.7809961 49.8025391 39.5520508 26.92375 39.5520508 26.355957 33.285 26.3558203 33.2847266 50.3433984 33.159082 50.8858984 26.7323437"></polygon>
            <polygon id="Path" fill="#000000" points="20.6662695 2.29632813 20.6662695 5.62146484 17.4891992 5.62146484 17.4891992 2.29632813 14.5336133 2.29632813 14.5336133 11.8279492 17.4891992 11.8279492 17.4891992 8.72470703 20.6662695 8.72470703 20.6662695 11.8279492 23.6218555 11.8279492 23.6218555 2.29632813"></polygon>
            <polygon id="Path" fill="#000000" points="34.1141992 2.29632813 25.0256836 2.29632813 25.0256836 5.62146484 27.9812695 5.62146484 27.9812695 11.9020508 31.1586133 11.9020508 31.1586133 5.62146484 34.1141992 5.62146484"></polygon>
            <polygon id="Path" fill="#000000" points="51.0349219 8.87236328 51.0349219 2.37029297 47.8575781 2.37029297 47.8575781 8.87236328 47.8575781 11.9020508 51.0349219 11.9020508 55.6158203 11.9020508 55.6158203 8.87236328"></polygon>
            <polygon id="Path" fill="#000000" points="43.0546484 2.37029297 40.8381641 5.76912109 38.6214062 2.37029297 35.4441992 2.37029297 35.4441992 11.9020508 38.6214062 11.9020508 38.6214062 7.17294922 40.8381641 10.5720508 43.0546484 7.17294922 43.0546484 11.9020508 46.2319922 11.9020508 46.2319922 2.37029297"></polygon>
        </g>
    </g>
</svg>