<?xml version="1.0" encoding="UTF-8"?>
<svg width="70px" height="70px" viewBox="0 0 70 70" version="1.1" xmlns="http://www.w3.org/2000/svg" xmlns:xlink="http://www.w3.org/1999/xlink">
    <title>REACT </title>
    <g id="וואב" stroke="none" stroke-width="1" fill="none" fill-rule="evenodd">
        <g id="REACT-" fill-rule="nonzero">
            <path d="M70,35 C70,46.5314062 64.422832,56.7600195 55.8199414,63.1371289 C52.2184961,65.8057422 48.0871289,67.7999219 43.6127344,68.9314062 C40.857168,69.6300391 37.9728125,70 35,70 C32.0271875,70 29.1414648,69.6300391 26.3857617,68.9314063 C21.9115039,67.7999219 17.78,65.8057422 14.1785547,63.135625 C5.57566406,56.7585156 0,46.5300391 0,35 C0,15.6700195 15.6700195,0 35,0 C54.3299805,0 70,15.6700195 70,35 Z" id="Path" fill="#5ADAFD"></path>
            <g id="Group" transform="translate(0.957031, 9.160156)" fill="#095F76">
                <path d="M54.8987305,45.5470312 C54.7343945,44.445625 54.5172852,43.3112695 54.2487695,42.1513477 C54.0115625,41.132793 53.7359375,40.0941406 53.423125,39.0399023 C52.6002148,36.2713477 51.5160352,33.3942383 50.2017578,30.4856836 C49.6260352,29.2141992 49.0060156,27.9371094 48.3445703,26.6613867 C47.7617383,25.5371484 47.1474609,24.4114063 46.5002344,23.2927734 C45.8545117,22.1727734 45.1888281,21.0784766 44.5045508,20.0113867 C43.7316797,18.8014258 42.9359766,17.6271484 42.1216797,16.492793 C40.2616211,13.8999219 38.3117383,11.5214258 36.3245313,9.42416016 C35.5688867,8.62558594 34.8073633,7.8684375 34.0431055,7.15558594 C33.1731641,6.34128906 32.2988477,5.58564453 31.4258984,4.89275391 C25.7273242,0.368457031 20.6259375,-0.990117187 17.0588086,1.06845703 C13.4916797,3.12839844 12.1173828,8.22554688 13.1859766,15.4241992 C13.3488086,16.5256055 13.5674219,17.6599609 13.8374414,18.8198828 C14.0717773,19.8384375 14.3474023,20.8770898 14.6617188,21.9313281 C15.4846289,24.6998828 16.5688086,27.5784961 17.8845898,30.4855469 C18.4589453,31.7570313 19.0788281,33.0326172 19.7402734,34.3083398 C20.3231055,35.434082 20.9388867,36.5583203 21.5846094,37.6783203 C22.230332,38.7983203 22.8960156,39.8926172 23.580293,40.959707 C24.3545313,42.1711719 25.1502344,43.3454492 25.9631641,44.479668 C27.8232227,47.0725391 29.7731055,49.449668 31.7603125,51.5467969 C32.5160938,52.3453711 33.2788477,53.1038867 34.0431055,53.8167383 C34.9130469,54.6310352 35.7873633,55.3853125 36.6588086,56.0782031 C38.7545703,57.7424805 40.7688477,58.9781445 42.6559766,59.7711133 C47.1302344,58.6396289 51.2617383,56.6454492 54.8630469,53.9768359 C55.3657617,51.6598633 55.3843555,48.8213086 54.8987305,45.5470312 Z M51.6900781,53.4570312 C51.2743164,55.2541992 50.5100586,56.485625 49.4172656,57.115625 C48.3258398,57.7469922 46.8773047,57.792793 45.1129492,57.255625 C43.2014844,56.6712891 40.9700977,55.3941992 38.6587305,53.5584766 C37.8816211,52.9413281 37.1030078,52.2699023 36.3243945,51.5484375 C35.5615039,50.8398242 34.7986133,50.0826758 34.0416016,49.2812305 C32.741543,47.9055664 31.4558398,46.3997461 30.201582,44.7841406 C29.3644531,43.7055664 28.5401758,42.578457 27.7358594,41.408418 C26.5686914,39.7126953 25.441582,37.9270117 24.3701172,36.0698242 C23.2972852,34.2126367 22.3144141,32.3441016 21.4301172,30.4855469 C20.8187109,29.204082 20.2543359,27.9269922 19.7401367,26.6627539 C18.9672656,24.7685156 18.3058203,22.9013477 17.7644141,21.088457 C17.4500977,20.0313477 17.1744727,18.9941992 16.944375,17.9785156 C16.707168,16.9442383 16.5143945,15.932793 16.3686523,14.9514258 C15.9344336,12.0328906 15.9444141,9.46148438 16.3943555,7.51433594 C16.8101172,5.71716797 17.5757422,4.48574219 18.667168,3.85574219 C19.2571094,3.51572266 19.95,3.34427734 20.7399609,3.34427734 C21.4142578,3.34427734 22.1599219,3.46855469 22.9713477,3.71710938 C24.8828125,4.29994141 27.1141992,5.57853516 29.4255664,7.41289063 C30.2026758,8.03003906 30.9826563,8.70146484 31.7599023,9.42580078 C32.5241602,10.1329102 33.2856836,10.8900586 34.0413281,11.6901367 C35.3427539,13.0658008 36.628457,14.5716211 37.8842188,16.1887305 C38.7213477,17.2673047 39.545625,18.3944141 40.3499414,19.5644531 C41.5156055,21.2601758 42.6428516,23.0458594 43.7141797,24.901543 C44.7870117,26.7587305 45.7698828,28.6272656 46.6541797,30.4858203 C47.2655859,31.7686523 47.8299609,33.0458789 48.3441602,34.3101172 C49.1170313,36.2043555 49.7784766,38.0701562 50.3198828,39.8829102 C50.6341992,40.9400195 50.9098242,41.977168 51.1412891,42.9928516 C51.3769922,44.0271289 51.5699023,45.0385742 51.7156445,46.0199414 C52.1501367,48.9384766 52.1401563,51.5098828 51.6900781,53.4570312 Z" id="Shape"></path>
                <path d="M57.5144336,19.9556055 C56.4786523,19.5470898 55.3872266,19.1685156 54.2472656,18.8198828 C53.2473047,18.5155469 52.2101563,18.2341797 51.1400586,17.9785156 C48.3314453,17.3070898 45.2972461,16.8071094 42.121543,16.492793 C40.7343945,16.3541602 39.3186719,16.2528516 37.8843555,16.188457 C36.6186133,16.1299414 35.3357813,16.0998633 34.0429688,16.0998633 C32.7501563,16.0998633 31.4671875,16.1298047 30.2000781,16.188457 C28.7643945,16.2527148 27.3486719,16.3556641 25.9615234,16.492793 C22.7858203,16.8071094 19.7529883,17.3070898 16.944375,17.9785156 C15.8744141,18.2341797 14.8372656,18.5156836 13.837168,18.8198828 C12.697207,19.1670117 11.6057813,19.5470898 10.57,19.9556055 C3.80296875,22.6269531 0.074375,26.3670313 0.074375,30.4855469 C0.074375,34.6040625 3.80296875,38.3441406 10.5701367,41.0169922 C11.605918,41.4255078 12.6958398,41.804082 13.8358008,42.1527148 C14.8357617,42.4570508 15.8729102,42.738418 16.9430078,42.9927148 C19.7516211,43.6655078 22.7858203,44.1641211 25.9630273,44.4798047 C27.3501758,44.6169336 28.7658984,44.7183789 30.201582,44.7841406 C31.4673242,44.8426563 32.7501562,44.8712305 34.0429688,44.8712305 C35.3357813,44.8712305 36.6172461,44.8426563 37.8829883,44.7841406 C39.3186719,44.7183789 40.7330273,44.6169336 42.121543,44.4798047 C45.2972461,44.1654883 48.3329492,43.6655078 51.1415625,42.9927148 C52.2115234,42.7370508 53.2486719,42.4570508 54.2487695,42.1513477 C55.3873633,41.8042188 56.4787891,41.4256445 57.5144336,41.0169922 C64.2829688,38.3441406 68.0101953,34.6041992 68.0101953,30.4855469 C68.0101953,26.3670313 64.2829688,22.6269531 57.5144336,19.9556055 Z M62.7600586,34.2826367 C61.3000391,35.6469531 59.0772656,36.9397656 56.3329102,38.024082 C55.4086914,38.3883008 54.437168,38.7283203 53.4228516,39.0397656 C52.4271289,39.3469727 51.3914844,39.6283398 50.3200195,39.8826367 C48.4785547,40.3212305 46.5314063,40.6812109 44.5042773,40.9598438 C43.1528125,41.1470117 41.7656641,41.2969922 40.3499414,41.4070508 C38.2971094,41.5713867 36.1871289,41.6542383 34.042832,41.6542383 C31.8985352,41.6542383 29.7885547,41.5713867 27.7357227,41.4085547 C26.32,41.2971289 24.9314844,41.1471484 23.5800195,40.9599805 C21.5528906,40.6813477 19.6057422,40.3213672 17.7642773,39.8827734 C16.6928125,39.6284766 15.657168,39.3471094 14.6614453,39.0399023 C13.6471289,38.728457 12.6757422,38.3884375 11.7513867,38.0242188 C9.00716797,36.9399023 6.78425781,35.6470898 5.32423828,34.2827734 C3.97564453,33.0241406 3.29136719,31.7470508 3.29136719,30.4856836 C3.29136719,29.2243164 3.97564453,27.9470898 5.32423828,26.6885937 C6.78425781,25.3242773 9.00703125,24.0314648 11.7513867,22.9471484 C12.6756055,22.5829297 13.6471289,22.2429102 14.6614453,21.9314648 C15.657168,21.6242578 16.6928125,21.3428906 17.7642773,21.0885937 C19.6057422,20.65 21.5528906,20.2900195 23.5800195,20.0113867 C24.9314844,19.8242187 26.32,19.6742383 27.7357227,19.5628125 C29.7885547,19.3999805 31.8985352,19.3171289 34.042832,19.3171289 C36.1871289,19.3171289 38.2971094,19.3999805 40.3499414,19.5643164 C41.7656641,19.674375 43.1528125,19.8243555 44.5042773,20.0115234 C46.5314063,20.2901562 48.4785547,20.6501367 50.3200195,21.0887305 C51.3914844,21.3430273 52.4271289,21.6243945 53.4228516,21.9316016 C54.437168,22.2430469 55.4085547,22.5830664 56.3329102,22.9472852 C59.0771289,24.0316016 61.3000391,25.3244141 62.7600586,26.6887305 C64.1086523,27.9473633 64.7929297,29.2244531 64.7929297,30.4858203 C64.7929297,31.7470508 64.1086523,33.0241406 62.7600586,34.2826367 Z" id="Shape"></path>
                <path d="M51.0257617,1.06845703 C47.4586328,-0.990117188 42.3572461,0.368457031 36.6586719,4.89275391 C35.7872266,5.58564453 34.9129102,6.34128906 34.0429688,7.15558594 C33.2787109,7.8684375 32.5158203,8.62695313 31.7601758,9.42552734 C29.7729688,11.5226563 27.8230859,13.8997852 25.9616602,16.4926563 C25.1488672,17.626875 24.3530273,18.8012891 23.580293,20.01125 C22.8960156,21.0783398 22.230332,22.1726367 21.5846094,23.2926367 C20.9388867,24.4126367 20.3232422,25.536875 19.7402734,26.6626172 C19.0788281,27.9383398 18.4588086,29.2154297 17.8845898,30.4854102 C16.5688086,33.3939648 15.4846289,36.2710742 14.6617187,39.0396289 C14.3474023,40.0953711 14.0717773,41.1338867 13.8359375,42.1524414 C13.5674219,43.3125 13.3488086,44.4453516 13.1859766,45.5467578 C12.7002148,48.819668 12.7188086,51.6582227 13.2216602,53.975332 C16.8231055,56.6453125 20.9544727,58.6396289 25.4288672,59.7711133 C27.3159961,58.9782813 29.3302734,57.7424805 31.4260352,56.0782031 C32.2988477,55.3853125 33.1731641,54.629668 34.0432422,53.8167383 C34.8075,53.1038867 35.5690234,52.3467383 36.324668,51.5481641 C38.3103711,49.4510352 40.2617578,47.0724023 42.1218164,44.4795313 C42.9346094,43.3451758 43.7304492,42.1708984 44.5046875,40.9595703 C45.1889648,39.8924805 45.8546484,38.7981836 46.5003711,37.6781836 C47.1474609,36.5595508 47.7617383,35.4353125 48.344707,34.3095703 C49.0061523,33.0338477 49.6261719,31.7567578 50.2018945,30.4852734 C51.5161719,27.5780859 52.6004883,24.6996094 53.4232617,21.9310547 C53.7360742,20.8768164 54.0118359,19.8381641 54.2475391,18.8196094 C54.5175586,17.6595508 54.734668,16.525332 54.8990039,15.4239258 C55.9671875,8.22554688 54.5930273,3.12839844 51.0257617,1.06845703 Z M50.3201563,21.088457 C49.77875,22.9013477 49.1173047,24.7670117 48.3444336,26.66125 C47.8300977,27.9254883 47.2658594,29.2027148 46.6544531,30.4855469 C45.7701562,32.3441016 44.7872852,34.2126367 43.7144531,36.0698242 C42.6429883,37.9255078 41.5158789,39.7111914 40.3502148,41.4069141 C39.5445312,42.5783203 38.7202539,43.7054297 37.883125,44.7840039 C36.6288672,46.3997461 35.3431641,47.9054297 34.0417383,49.2810938 C33.2860937,50.0810352 32.5245703,50.8381836 31.7603125,51.5467969 C30.9832031,52.2696289 30.2032227,52.9410547 29.4259766,53.5582031 C27.1146094,55.3939258 24.8830859,56.6710156 22.9717578,57.2553516 C21.2075391,57.7925195 19.7588672,57.7467188 18.6674414,57.1153516 C17.5760156,56.4853516 16.8102539,55.2539258 16.3946289,53.4567578 C15.9446875,51.5096094 15.9345703,48.9382031 16.3689258,46.019668 C16.514668,45.0383008 16.7074414,44.0268555 16.9431445,42.9925781 C17.1746094,41.9768945 17.4502344,40.9397461 17.7645508,39.8826367 C18.305957,38.0697461 18.9674023,36.2025781 19.7402734,34.3083398 C20.2546094,33.0441016 20.8188477,31.766875 21.4302539,30.4855469 C22.3145508,28.6269922 23.2974219,26.758457 24.3702539,24.9012695 C25.4417187,23.044082 26.5688281,21.2583984 27.7359961,19.5626758 C28.5403125,18.3926367 29.3630859,17.2655273 30.2002148,16.188457 C31.4559766,14.5713477 32.7416797,13.0656641 34.0416016,11.6898633 C34.79875,10.888418 35.5616406,10.1312695 36.3243945,9.42416016 C37.1030078,8.70132812 37.8814844,8.02990234 38.6587305,7.41275391 C40.9700977,5.57853516 43.2016211,4.29994141 45.1129492,3.71697266 C45.924375,3.46841797 46.6700391,3.34414063 47.3443359,3.34414063 C48.1342969,3.34414063 48.8285547,3.51558594 49.4171289,3.85560547 C50.5099219,4.48560547 51.2743164,5.71703125 51.6899414,7.51419922 C52.1398828,9.46134766 52.15,12.0327539 51.7156445,14.9512891 C51.5699023,15.9326562 51.3771289,16.9441016 51.1399219,17.9783789 C50.9100977,18.9940625 50.6343359,20.0312109 50.3201563,21.088457 Z" id="Shape"></path>
                <circle id="Oval" cx="34.0429688" cy="30.4855469" r="6.38421875"></circle>
            </g>
        </g>
    </g>
</svg>