<?xml version="1.0" encoding="UTF-8"?>
<svg width="70px" height="70px" viewBox="0 0 70 70" version="1.1" xmlns="http://www.w3.org/2000/svg" xmlns:xlink="http://www.w3.org/1999/xlink">
    <title>CSS3 </title>
    <g id="וואב" stroke="none" stroke-width="1" fill="none" fill-rule="evenodd">
        <g id="CSS3-" fill-rule="nonzero">
            <path d="M70,35 C70,46.2542773 64.6871094,56.2685156 56.4328516,62.6714648 C50.5114258,67.2657617 43.0757031,70 35,70 C26.9242969,70 19.4885742,67.2657617 13.5671484,62.6714648 C5.31289062,56.2685156 0,46.2542773 0,35 C0,15.6700195 15.6700195,0 35,0 C54.3299805,0 70,15.6700195 70,35 Z" id="Path" fill="#F2F2F2"></path>
            <path d="M60.4285937,16.3343359 L56.4328516,62.6714648 C50.5114258,67.2657617 43.0757031,70 35,70 C26.9242969,70 19.4885742,67.2657617 13.5671484,62.6714648 L9.57140625,16.3343359 L60.4285937,16.3343359 Z" id="Path" fill="#006BC0"></path>
            <polygon id="Path" fill="#0096DC" points="34.9995898 20.6907422 34.9995898 69.0834375 51.7164648 64.364043 55.4456055 20.6907422"></polygon>
            <polygon id="Path" fill="#FFFFFF" points="49.7705469 39.6193164 37.7138672 39.6193164 50.3123633 33.2076172 50.8567773 26.7621484 19.1424023 26.7621484 19.6973437 33.3335352 32.4281836 33.3335352 20.2131836 39.4411719 20.7815234 46.1730664 20.7815234 46.1730664 42.5709375 46.1730664 41.8567187 54.1906641 34.9995898 56.0478516 27.8567187 54.047793 27.6781641 49.0478516 21.0243359 49.0478516 21.8566797 58.905 34.9995898 62.6192383 48.1423633 58.905 49.770957 39.6182227"></polygon>
            <g id="Group" transform="translate(20.097656, 2.050781)" fill="#222123">
                <polygon id="Path" points="2.5090625 7.14 2.5090625 2.56853516 9.08044922 2.56853516 9.08044922 0.092421875 0.128105469 0.092421875 0.128105469 9.61611328 9.08044922 9.61611328 9.08044922 7.14"></polygon>
                <polygon id="Path" points="12.9256641 3.81855469 12.9256641 2.67558594 19.4615039 2.67558594 19.4615039 2.56853516 19.4615039 0.092421875 10.5090234 0.092421875 10.5090234 5.99703125 16.9256445 5.99703125 16.9256445 7.14 10.5090234 7.14 10.5090234 9.61611328 19.4615039 9.61611328 19.4615039 7.14 19.4615039 3.81855469"></polygon>
                <polygon id="Path" points="23.1399219 3.81855469 23.1399219 2.67558594 29.675625 2.67558594 29.675625 2.56853516 29.675625 0.092421875 20.7232812 0.092421875 20.7232812 5.99703125 27.1399023 5.99703125 27.1399023 7.14 20.7232812 7.14 20.7232812 9.61611328 29.675625 9.61611328 29.675625 7.14 29.675625 3.81855469"></polygon>
            </g>
        </g>
    </g>
</svg>