<?xml version="1.0" encoding="UTF-8"?>
<svg width="70px" height="70px" viewBox="0 0 70 70" version="1.1" xmlns="http://www.w3.org/2000/svg" xmlns:xlink="http://www.w3.org/1999/xlink">
    <title>NODEJS </title>
    <g id="וואב" stroke="none" stroke-width="1" fill="none" fill-rule="evenodd">
        <g id="NODEJS-" fill-rule="nonzero">
            <path d="M70,35 C70,54.3299805 54.3299805,70 35,70 C17.1657227,70 2.44712891,56.6614453 0.277128906,39.4157422 C0.0943359375,37.9699414 0,36.4957031 0,35 C0,32.2600195 0.314316406,29.5929102 0.91,27.0342187 C4.51568359,11.5428906 18.41,0 35,0 C51.5485742,0 65.4156836,11.4857422 69.0614258,26.9200586 C69.5399414,28.9385742 69.8414062,31.0243555 69.9514648,33.1600391 C69.9842773,33.7699414 70,34.3828516 70,35 Z" id="Path" fill="#F2F2F2"></path>
            <polygon id="Path" fill="#3B8739" points="33.2493164 37.8108008 33.2493164 28.7109375 25.3685742 24.1610742 17.4879688 28.7109375 17.4879688 37.8108008 25.3685742 42.3606641"></polygon>
            <path d="M64.2857031,36.4299414 L69.4214063,39.3956445 L64.2857031,42.3613477 L56.4056445,37.8113477 L56.4056445,28.7113477 L64.2857031,24.1613477 L69.0614258,26.9199219 C69.5399414,28.9384375 69.8414062,31.0242187 69.9514648,33.1599023 L67.0314258,34.8456445 L67.0314258,31.6756836 L64.2857031,30.0913867 L61.5399805,31.6756836 L61.5399805,34.8456445 L64.2857031,36.4299414 Z" id="Path" fill="#333333"></path>
            <polygon id="Path" fill="#66A060" points="65.8153125 34.1441406 65.8153125 32.3777344 64.2855664 31.4945313 62.7556836 32.3777344 62.7556836 34.1441406 64.2855664 35.0274805"></polygon>
            <path d="M13.7656641,28.7114844 L13.7656641,40.7114258 L8.50992188,37.7129102 L8.50992188,31.5615234 L5.88574219,30.0457227 L3.26142578,31.5613867 L3.26142578,37.7127734 L0.277128906,39.4157422 C0.0943359375,37.9699414 0,36.4957031 0,35 C0,32.2600195 0.314316406,29.5929102 0.91,27.0342187 L5.88574219,24.1613477 L13.7656641,28.7114844 Z" id="Path" fill="#333333"></path>
            <rect id="Rectangle" fill="#6DA75D" transform="translate(25.368110, 33.260051) rotate(59.999272) translate(-25.368110, -33.260051) " x="17.487746" y="28.7103566" width="15.7607275" height="9.09938965"></rect>
            <polygon id="Path" fill="#55A344" points="17.4879688 37.8108008 20.1939063 33.3980664 17.4879688 28.7109375"></polygon>
            <polygon id="Path" fill="#639D57" points="30.6221289 33.2605273 33.2493164 28.7109375 25.3685742 24.1610742"></polygon>
            <path d="M47.3800195,13.6143164 L47.3800195,25.6871289 L44.7386133,24.1613477 L36.8571875,28.7113477 L36.8571875,37.8113477 L44.7386133,42.3613477 L52.6186719,37.8113477 L52.6186719,16.4185547 L47.3800195,13.6143164 Z M47.3656641,34.7771484 L44.7384766,36.2943164 L42.1112891,34.7771484 L42.1112891,31.7443164 L44.7384766,30.2271484 L47.3656641,31.7443164 L47.3656641,34.7771484 Z" id="Shape" fill="#333333"></path>
            <g id="Group" transform="translate(26.523438, 40.742188)" fill="#66A060">
                <path d="M12.0516211,8.30115234 C12.0516211,8.30115234 11.8968555,6.97101562 10.4740234,6.97101562 C9.05105469,6.97101562 8.07679688,7.15654297 8.07679688,7.94541016 C8.07679688,8.73427734 10.8453516,8.73427734 11.8971289,9.04353516 C12.9489062,9.35279297 13.8768164,10.1571094 13.412793,11.5800781 C12.9487695,13.0030469 11.5258008,13.1576758 9.32955078,13.1576758 C7.13330078,13.1576758 6.63824219,11.3324805 6.63824219,10.6211328 L7.87554688,10.6211328 C7.87554688,10.6211328 7.72078125,11.734707 9.17464844,11.9202344 C10.6285156,12.1057617 12.0186719,12.2102148 12.2061133,11.0851562 C12.4535742,9.60025391 7.50421875,10.3427734 7.07109375,8.88890625 C6.70523438,7.66048828 6.91632813,6.04310547 9.39107422,5.79550781 C11.8658203,5.54791016 13.2268555,6.64056641 13.2268555,8.27025391 L12.0516211,8.30115234 Z" id="Path"></path>
                <path d="M0.0987109375,14.0999414 L2.83431641,15.6791797 C4.20875,16.4726953 5.92675781,15.4808008 5.92675781,13.8937695 L5.92675781,11.1263086 L5.92675781,6.033125 L4.81181641,6.033125 L4.81181641,13.5836914 C4.81181641,14.4503516 3.87365234,14.992168 3.12292969,14.5586328 L1.21365234,13.4564062 L1.21365234,5.39820312 L8.1921875,1.36951172 L15.1707227,5.39820312 L15.1707227,13.4564062 L8.1921875,17.4850977 L6.181875,16.3244922 L4.86910156,16.8538672 L8.19205078,18.7724414 L16.2855273,14.0995312 L16.2855273,4.75466797 L8.1921875,0.08203125 L0.0987109375,4.75494141 L0.0987109375,14.0999414 L0.0987109375,14.0999414 Z" id="Path"></path>
            </g>
        </g>
    </g>
</svg>