<?xml version="1.0" encoding="UTF-8"?>
<svg width="70px" height="70px" viewBox="0 0 70 70" version="1.1" xmlns="http://www.w3.org/2000/svg" xmlns:xlink="http://www.w3.org/1999/xlink">
    <title>SASS</title>
    <g id="וואב" stroke="none" stroke-width="1" fill="none" fill-rule="evenodd">
        <g id="SASS" fill-rule="nonzero">
            <path d="M70,35 C70,36.0814453 69.9514648,37.1500391 69.8542578,38.2057812 C69.7800195,39.041543 69.6741992,39.8671875 69.5399414,40.6829883 C66.8256641,57.3100391 52.3943164,70 35,70 C26.1399414,70 18.0500195,66.7086328 11.8842773,61.2799414 C9.60572266,59.2756445 7.58994141,56.9784961 5.89572266,54.4471484 C2.17136719,48.8857031 0,42.1957813 0,35 C0,15.6700195 15.6700195,0 35,0 C54.3299805,0 70,15.6700195 70,35 Z" id="Path" fill="#F2F2F2"></path>
            <path d="M61.0814258,38.9614258 C60.0199414,39.362832 60.0628711,39.3699414 59.5013672,38.3471484 C58.7842773,37.0443555 58.402832,35.6742969 58.3698828,34.1843359 C58.3426758,32.9057422 58.6926758,31.7172461 59.1327734,30.5514453 C59.4841406,29.6243555 59.0270898,29.2971875 58.2241406,29.212832 C57.6398047,29.1528125 57.0370117,29.1585547 56.4513086,29.2185742 C54.9283984,29.3742969 54.778418,29.5056836 54.3741406,30.9842969 C54.1341992,31.8614844 53.9426562,32.7457812 53.5441211,33.5785352 C52.56125,35.6284961 51.4441211,37.6028516 50.298418,39.5628516 C50.0926562,39.9157227 49.9227148,40.2956641 49.6327344,40.5971289 C48.8027148,39.3542188 48.4899023,37.9814258 48.4199023,36.5413672 C48.3499023,35.1199023 48.785625,33.7985156 49.2641406,32.4913477 C49.4256055,32.0513867 49.2913477,31.7784961 48.9112695,31.588457 C48.7426953,31.5042383 48.5541602,31.425625 48.3698633,31.4112695 C47.3927344,31.3341602 46.4184766,31.3455078 45.4655469,31.6126563 C45.0369336,31.7311914 44.7569336,31.9712695 44.6612305,32.4526562 C44.4755664,33.3941016 44.1855859,34.3083398 43.7940234,35.1883984 C42.7083398,37.6255469 41.6297656,40.0669336 40.5454492,42.5055859 C39.6026367,44.6241797 38.674043,46.7483789 37.5569141,48.7827539 C37.4783008,48.9269922 37.4126758,49.1770508 37.2155273,49.1270117 C37.0155078,49.0769727 37.0855078,48.8312891 37.0768945,48.6627148 C37.0126367,47.4627344 37.3398047,46.3183984 37.6183008,45.1726953 C38.0597656,43.3598047 38.5425195,41.5555273 39.0111914,39.7483789 C39.1454492,39.2298047 38.9197266,38.8811719 38.4897461,38.6326172 C37.8712305,38.276875 37.2554492,38.2597852 36.5855273,38.7582617 C36.6769922,38.0210742 36.7169141,37.3739844 36.6854687,36.7268945 C36.6141016,35.2841016 35.9454102,34.3455273 34.78125,34.1282812 C33.9312695,33.9696875 33.1269531,34.216875 32.3669336,34.5768555 C30.5954687,35.4154883 29.1712695,36.6797266 27.9740234,38.2139844 C27.8340234,38.3925391 27.6926562,38.556875 27.4897656,38.6667969 C25.2426562,39.8911133 22.9969141,41.1154297 20.7555469,42.3510937 C20.5098633,42.4882227 20.3512695,42.449668 20.174082,42.2596289 C19.0454687,41.049668 17.7355664,40.0510742 16.4383789,39.0382617 C14.6254883,37.6211719 12.7498437,36.2783203 11.1855078,34.5697461 C10.2712695,33.5697852 9.50837891,32.4739844 9.12693359,31.1512305 C8.50404297,28.9883398 8.96984375,26.9740625 10.0069922,25.0598633 C11.2341797,22.7955273 13.0541797,21.0470312 15.0612109,19.4898047 C18.2483984,17.0183398 21.7440234,15.0554687 25.4283203,13.4398633 C29.554082,11.6327148 33.8340625,10.468418 38.3925391,10.6441016 C40.1983203,10.7141016 41.9510547,11.0269141 43.5596875,11.9112109 C44.6982812,12.5369727 45.4525586,13.4412305 45.6654297,14.7683594 C45.9154883,16.3225781 45.5425195,17.7583984 44.8526367,19.1198437 C43.3112695,22.1612891 40.8612695,24.3155664 37.9654297,26.0026758 C35.5539844,27.4069141 32.9526367,28.298457 30.199668,28.7654883 C28.6782617,29.0240234 27.1511133,29.1797461 25.6210937,28.9469141 C23.8653516,28.6797656 22.2425,28.0926953 21.0411523,26.6783398 C20.9025195,26.5155078 20.7268359,26.4025781 20.4911328,26.516875 C20.2496875,26.634043 20.2682812,26.8482812 20.2911133,27.054043 C20.3082031,27.1954102 20.3468945,27.3382812 20.3967969,27.4726758 C20.7182227,28.3398828 21.3196484,28.994082 22.0238867,29.5655664 C23.8553711,31.0555273 26.0253711,31.4927539 28.3039258,31.5370508 C30.5339453,31.5813477 32.7296484,31.2984766 34.9025195,30.7785352 C39.8038867,29.6071289 43.9096875,27.202793 46.9068359,23.0827734 C48.6982617,20.6199219 49.8326172,17.9056445 49.7325391,14.7999414 C49.6682812,12.8299609 49.005332,11.0899414 47.5696484,9.67572266 C45.8624414,7.99708984 43.7439844,7.15285156 41.4710352,6.64576172 C38.9395508,6.08289062 36.3825,6.00291016 33.7996094,6.31148437 C31.5525,6.58 29.3567969,7.04005859 27.2196094,7.77574219 C23.9495703,8.90285156 20.7910937,10.2871289 17.7682422,11.97 C14.6711523,13.692793 11.7524805,15.6657812 9.19255859,18.1371094 C6.92685547,20.3241992 4.97970703,22.7371484 3.88253906,25.732793 C3.41400391,27.015625 3.07685547,28.3342773 3.39117187,29.7214258 C3.79408203,31.5071094 4.67400391,33.0528516 5.83119141,34.4471094 C7.58119141,36.5585937 9.72835937,38.2213672 11.9426562,39.8099023 C13.7212305,41.0869922 15.5826562,42.2499219 17.2912305,43.6227148 C17.7754883,44.0112695 17.7726172,44.0112695 17.2026367,44.3098633 C16.5369531,44.6569922 15.8640234,44.9912695 15.2098242,45.3612305 C12.5714258,46.852832 10.0214844,48.4699414 7.93994141,50.7171875 C6.91564453,51.8243359 6.21988281,53.0672461 5.89572266,54.4471484 C7.58994141,56.9786328 9.60572266,59.2757812 11.8842773,61.2799414 C15.7714648,60.9771094 18.7471484,58.9542187 20.9457227,55.6085742 C22.007207,53.992832 22.5043164,52.1643555 22.6914844,50.2356641 C22.8558203,48.5357031 22.6828711,46.8898828 22.1828906,45.2670313 C22.0958008,44.9812891 21.7715039,44.6970508 21.8986523,44.445625 C22.0171875,44.2141602 22.3744336,44.0969922 22.637207,43.9456445 C23.6971875,43.3298633 24.7600391,42.722832 25.8514648,42.0957031 C25.8986328,42.3300391 25.807168,42.467168 25.7672461,42.6156445 C25.1414844,44.9114258 24.7057617,47.2256641 25.181543,49.6114062 C25.4772656,51.0971289 25.9701367,52.495625 26.907207,53.7256836 C27.8714844,54.9914258 30.0243945,54.8470508 30.8985742,53.6913672 C31.7285938,52.5941992 32.2786133,51.3570312 32.8514648,50.1256055 C33.1657812,49.4513086 33.4542578,48.7656641 33.7543555,48.0841211 C33.6985742,48.9041602 33.7014453,49.7041016 33.7315234,50.5013086 C33.7614648,51.2870312 33.8872461,52.0627734 34.2957617,52.7570312 C34.7871289,53.5912891 35.7114844,53.8342383 36.5700781,53.3883984 C37.4758398,52.9183594 38.0929883,52.1441211 38.5728711,51.3041211 C40.6314453,47.6913281 42.5414063,44.0012891 44.122832,40.148418 C44.4599805,39.3298828 44.8057422,38.5127148 45.1871875,37.6027148 C45.2457031,37.9013086 45.2843945,38.0841016 45.3200781,38.2670312 C45.6714453,40.1027539 46.297207,41.8399023 47.2029687,43.4727344 C47.3972461,43.8227344 47.3757813,44.0641797 47.1300977,44.3998242 C46.2958398,45.5355469 45.3814648,46.6041406 44.4800781,47.684082 C43.7229297,48.5927148 42.9128711,49.4612891 42.2728906,50.46125 C41.6986719,51.3612695 42.0285742,52.2826172 42.984375,52.4870117 C43.2785937,52.5499023 43.5886719,52.5684961 43.8901367,52.5641211 C45.5601562,52.5441602 47.1015234,52.0455469 48.5373437,51.2283789 C50.4701367,50.1269727 51.6159766,48.5125977 51.5630664,46.214082 C51.5387305,45.1683203 51.2558594,44.1641211 50.8344922,43.2054492 C50.7416602,42.9925781 50.7372852,42.8383594 50.875918,42.6383398 C52.2145313,40.7211328 53.3972852,38.7112305 54.4844727,36.6426758 C54.6773828,36.278457 54.8130078,35.874043 55.1244531,35.5184375 C55.1658789,35.6626758 55.1986914,35.7527734 55.2172852,35.8456055 C55.5630469,37.5599219 56.0287109,39.2355469 56.9030273,40.7655664 C57.1429687,41.1841992 57.0230664,41.3969336 56.6916602,41.6769336 C55.5501953,42.6469531 54.5874219,43.7783008 53.8316406,45.0741211 C53.2430664,46.0826953 52.8401562,47.1597656 52.8445312,48.3412891 C52.8487695,49.6555664 53.8544727,50.4298047 55.1359375,50.1212305 C56.4716797,49.8011719 57.7102148,49.2568945 58.8216016,48.4441016 C61.2430273,46.6712695 61.9530078,44.8012305 61.1944922,42.1912695 C60.8974023,41.1641016 60.9030078,41.1813281 61.9330469,40.8698828 C64.1858984,40.1898437 66.4715625,40.1612695 68.7687109,40.5356055 C69.02875,40.5783984 69.285918,40.6270703 69.5400781,40.6827148 C69.6743359,39.8670508 69.7800195,39.0412695 69.8543945,38.2055078 C66.9157617,37.4871875 63.9813672,37.8600195 61.0814258,38.9614258 Z M13.4785547,57.3399805 C12.8257227,57.5714453 12.1471875,57.6700195 11.452793,57.6157422 C10.588457,57.5471094 10.0399414,56.937207 9.98416016,56.0199609 C9.92126953,54.9628516 10.2342187,54.0085547 10.6970117,53.0799609 C11.5383789,51.3942187 12.9512305,50.2500195 14.392793,49.1271484 C15.7941602,48.0343555 17.2999805,47.1013867 18.8227539,46.1942578 C19.2841797,45.92 19.2912891,45.9228711 19.3969727,46.4728906 C19.5341016,47.1786328 19.6570117,47.8857422 19.6112109,48.5272266 C19.7313867,52.3742187 16.9371289,56.1156641 13.4785547,57.3399805 Z M34.4471094,37.9413672 C34.2042969,39.5628516 33.6742383,41.1070898 33.11,42.6327344 C32.3413672,44.7156445 31.592832,46.8083984 30.6256836,48.8113281 C30.4041992,49.2727539 30.1713672,49.7313086 29.8128906,50.1070117 C29.474375,50.4627539 29.1742773,50.4213281 28.9400781,49.9869727 C28.4828906,49.1383594 28.5400391,48.1941797 28.4658008,47.5083984 C28.4872656,44.068418 29.641582,41.2569336 31.5429297,38.7298242 C32.0743555,38.0255859 32.7528906,37.4527344 33.651543,37.2226367 C34.2614453,37.0671875 34.5428125,37.3128711 34.4471094,37.9413672 Z M47.7614648,48.1256836 C47.11,49.2514258 46.1714258,50.0699609 45.0199805,50.652793 C44.8970703,50.7141797 44.7386133,50.8227344 44.6271875,50.6784961 C44.5215039,50.5427344 44.6914453,50.4527734 44.7685547,50.3670508 C45.9128906,49.1170312 47.0428711,47.8570312 48.0614258,46.5013281 C48.0771484,46.4798633 48.1157031,46.4769922 48.202793,46.4399414 C48.1928125,47.067207 48.0556836,47.6185937 47.7614648,48.1256836 Z M55.6628516,48.0771484 C55.4929102,48.1571289 55.2957617,48.3071094 55.1300586,48.1785937 C54.9472656,48.0372266 55.02,47.787168 55.0757813,47.5957617 C55.3358203,46.7229492 55.6858203,45.8871875 56.1685742,45.1085742 C56.5742188,44.4528711 57.077207,43.8800195 57.6299609,43.3457227 C57.8528125,43.1314844 57.9527539,43.1571875 58.0284961,43.4657617 C58.1071094,43.7814453 58.1142188,44.0971289 58.1199609,44.4185547 C58.1057422,46.177168 57.212832,47.347207 55.6628516,48.0771484 Z" id="Shape" fill="#CD6699"></path>
        </g>
    </g>
</svg>