<?xml version="1.0" encoding="UTF-8"?>
<svg width="30px" height="30px" viewBox="0 0 30 30" version="1.1" xmlns="http://www.w3.org/2000/svg" xmlns:xlink="http://www.w3.org/1999/xlink">
    <title>העברת תמונה ימינה</title>
    <g id="וואב" stroke="none" stroke-width="1" fill="none" fill-rule="evenodd">
        <g id="העברת-תמונה-ימינה">
            <path d="M15,0 C6.73001953,0 0,6.72873047 0,15 C0,23.2699805 6.73001953,30 15,30 C23.2712695,30 30,23.2699805 30,15 C30,6.72873047 23.2712695,0 15,0 Z" id="Shape" fill="#6236FF" fill-rule="nonzero"></path>
            <path d="M23.6537695,15.4774805 C23.5900195,15.63 23.4987891,15.76875 23.3837695,15.8837109 L18.3837891,20.8836914 C18.1400391,21.1274414 17.8200586,21.2499609 17.5000195,21.2499609 C17.1800391,21.2499609 16.8612891,21.1274414 16.61625,20.8836914 C16.12875,20.3949609 16.12875,19.6037109 16.61625,19.1162109 L19.4824805,16.2499805 L7.5,16.2499805 C6.81,16.2499805 6.25001953,15.69 6.25001953,15 C6.25001953,14.3087695 6.81,13.7500195 7.5,13.7500195 L19.4824805,13.7500195 L16.61625,10.8837891 C16.12875,10.3950586 16.12875,9.60380859 16.61625,9.11630859 C17.1049805,8.62757812 17.8962305,8.62757812 18.3837305,9.11630859 L23.3837109,14.1150586 C23.4987305,14.2300781 23.5899609,14.3688281 23.6537109,14.5225781 C23.7799805,14.8275 23.7799805,15.1712695 23.6537695,15.4774805 Z" id="Path" fill="#FFFFFF"></path>
        </g>
    </g>
</svg>