<?xml version="1.0" encoding="UTF-8"?>
<svg width="18px" height="12px" viewBox="0 0 18 12" version="1.1" xmlns="http://www.w3.org/2000/svg" xmlns:xlink="http://www.w3.org/1999/xlink">
    <title>חץ אחורה סגול</title>
    <g id="וואב" stroke="none" stroke-width="1" fill="none" fill-rule="evenodd">
        <g id="חץ-אחורה-סגול" transform="translate(9.000000, 6.000000) scale(-1, 1) translate(-9.000000, -6.000000) " fill="#6236FF" fill-rule="nonzero">
            <path d="M17.8901236,5.73487347 L12.2651277,0.109872097 C12.1186317,-0.0366240324 11.8813272,-0.0366240324 11.7348664,0.109872097 C11.5883704,0.256368227 11.5883704,0.493672972 11.7348664,0.640133945 L16.7197378,5.62501016 L0.375011444,5.62501016 C0.167730346,5.62501016 0,5.79274067 0,6.00002197 C0,6.20730327 0.167730346,6.37503378 0.375011444,6.37503378 L16.7197378,6.37503378 L11.7348664,11.3598748 C11.5883704,11.506371 11.5883704,11.7436757 11.7348664,11.8901367 C11.8080968,11.9633672 11.9040733,12 12.0000146,12 C12.095956,12 12.1918973,11.9633672 12.2651629,11.8901367 L17.8901588,6.26513532 C18.0366196,6.11867435 18.0366196,5.8813696 17.8901236,5.73487347 Z" id="Path"></path>
        </g>
    </g>
</svg>