<?xml version="1.0" encoding="UTF-8"?>
<svg width="70px" height="70px" viewBox="0 0 70 70" version="1.1" xmlns="http://www.w3.org/2000/svg" xmlns:xlink="http://www.w3.org/1999/xlink">
    <title>JAVASCRIPT </title>
    <g id="וואב" stroke="none" stroke-width="1" fill="none" fill-rule="evenodd">
        <g id="JAVASCRIPT-" fill-rule="nonzero">
            <path d="M70,35 C70,39.5599805 69.1285547,43.9157031 67.5413867,47.9114453 C66.6927734,50.0486328 65.6399023,52.0828711 64.4056055,53.9885937 C62.8684766,56.3657227 61.0498438,58.5443359 58.9985156,60.4757617 C57.7970313,61.6086133 56.5170703,62.6557422 55.1656055,63.6100391 C49.4656641,67.6357227 42.5099609,70 35,70 C27.4900391,70 20.5343359,67.6357227 14.8342578,63.6100391 C13.1427734,62.4158008 11.5628516,61.0771875 10.1128125,59.6085547 C3.85998047,53.2870898 0,44.5928711 0,35 C0,25.4071289 3.85998047,16.7129102 10.1128125,10.3914453 C11.6485742,8.83722656 13.3299414,7.42710937 15.1342188,6.18146484 C20.7771484,2.28279297 27.6214258,0 35,0 C42.3785742,0 49.2228516,2.28279297 54.8657812,6.18146484 C56.2443164,7.13152344 57.5501172,8.18001953 58.7742969,9.31574219 C60.9185937,11.2985742 62.812832,13.5485547 64.4057422,16.0114063 C65.6400391,17.9171289 66.6929102,19.9513672 67.5415234,22.0885547 C69.1285547,26.0842969 70,30.4400195 70,35 Z" id="Path" fill="#E4BA42"></path>
            <g id="Group" transform="translate(9.980469, 6.152344)" fill="#F2F2F2">
                <path d="M43.4833984,25.6990234 C42.5092773,22.8738672 38.5149023,22.8738672 37.7357422,25.2118945 C36.9564453,27.5499219 39.5867773,28.9136914 43.6783594,30.2777344 C47.7699414,31.6416406 50.3029297,35.2462305 49.8158008,38.4608984 C49.3286719,41.6755664 47.9647656,45.8647656 39.879082,45.8647656 C34.8255469,45.8647656 32.0170703,42.7061523 30.6213086,40.3373633 L35.2028906,37.5841211 C35.2028906,37.5841211 36.7616211,40.8964062 39.6841211,40.8964062 C42.6067578,40.8964062 43.7757031,39.9222852 43.7757031,37.6816016 C43.7757031,34.9539258 34.3259766,33.9798047 32.8647266,29.3036133 C31.4034766,24.6274219 33.3518555,18.0029883 40.1711133,18.4899805 C44.4333203,18.7944531 46.8306836,20.8873437 48.0294336,22.4142187 L43.4833984,25.6990234 Z" id="Path"></path>
                <path d="M22.2460547,18.9772461 C22.2460547,18.9772461 22.2460547,35.4410547 22.2460547,37.6817383 C22.2460547,39.9222852 20.2976758,41.0915039 18.3492969,40.7017188 C16.400918,40.3120703 15.5241406,37.974043 15.5241406,37.974043 L11.0429102,40.9940234 C11.0429102,40.9940234 12.0170313,45.4752539 18.1544727,45.8650391 C24.2919141,46.2546875 27.7988867,42.5527539 27.7988867,39.435293 C27.7988867,36.317832 27.7988867,18.9772461 27.7988867,18.9772461 L22.2460547,18.9772461 L22.2460547,18.9772461 Z" id="Path"></path>
                <path d="M0.13234375,0.0291210938 L0.13234375,53.4562109 C1.58238281,54.9248438 3.16230469,56.2633203 4.85378906,57.4576953 L45.1852734,57.4576953 C46.5367383,56.5033984 47.8166992,55.4562695 49.0181836,54.323418 L3.26662109,54.323418 L3.26662109,3.16339844 L54.4251367,3.16339844 L54.4251367,47.83625 C55.6594336,45.9305273 56.7123047,43.8962891 57.560918,41.7591016 L57.560918,0.0291210938 L0.13234375,0.0291210938 Z" id="Path"></path>
            </g>
            <circle id="Oval" fill="#3F4A43" cx="12.0114258" cy="46.367207" r="5.55283203"></circle>
        </g>
    </g>
</svg>